<svg width="135" height="52" viewBox="0 0 135 52" fill="none" xmlns="http://www.w3.org/2000/svg">
<g filter="url(#filter0_d)">
<path d="M21 6C15.4026 6 10.3333 10.5373 10.3333 16.136C10.3333 21.7333 14.9586 28.416 21 38C27.0413 28.416 31.6666 21.7333 31.6666 16.136C31.6666 10.5373 26.5986 6 21 6ZM21 20.6667C18.7906 20.6667 17 18.876 17 16.6667C17 14.4573 18.7906 12.6667 21 12.6667C23.2093 12.6667 25 14.4573 25 16.6667C25 18.876 23.2093 20.6667 21 20.6667Z" fill="#599CFF"/>
<ellipse cx="21" cy="17.2" rx="6.4" ry="6.4" fill="#2D2D2D"/>
<g clip-path="url(#clip0)" filter="url(#filter1_d)">
<path d="M23.2846 18.9524H18.7151L18.7143 18.715C18.7143 18.2354 18.7524 17.9585 19.3193 17.8274C19.9608 17.6792 20.5932 17.547 20.2888 16.9859C19.3874 15.3238 20.032 14.381 20.9996 14.381C21.9486 14.381 22.6095 15.2888 21.7105 16.9863C21.4153 17.544 22.0252 17.6766 22.68 17.8278C23.2476 17.9589 23.2854 18.2362 23.2854 18.7166L23.2846 18.9524ZM25.1174 18.109C24.6259 17.9954 24.1688 17.896 24.3901 17.4777C25.064 16.2046 24.5688 15.5238 23.8568 15.5238C23.3749 15.5238 23.0004 15.835 23.0004 16.4091C23.0004 17.896 23.8644 17.0834 23.856 18.9524H25.5707L25.5714 18.776C25.5714 18.4156 25.5433 18.2072 25.1174 18.109ZM16.4294 18.9524H18.144C18.136 17.0834 18.9996 17.8964 18.9996 16.4091C18.9996 15.835 18.6252 15.5238 18.1433 15.5238C17.4313 15.5238 16.936 16.2046 17.6103 17.4777C17.8316 17.8964 17.3745 17.9954 16.8831 18.109C16.4568 18.2072 16.4286 18.4156 16.4286 18.776L16.4294 18.9524Z" fill="#599CFF"/>
</g>
</g>
<g filter="url(#filter2_d)">
<path d="M41.004 30.374C40.168 30.374 39.5667 30.2273 39.2 29.934C38.8333 29.6407 38.65 29.1493 38.65 28.46C38.65 27.7707 38.892 25.688 39.376 22.212C39.8747 18.7213 40.124 16.2353 40.124 14.754C40.124 13.258 40.0213 12.2827 39.816 11.828C41.2973 11.9453 42.28 12.5247 42.764 13.566C43.82 12.9793 45.0153 12.686 46.35 12.686C47.6993 12.686 48.7993 13.0747 49.65 13.852C50.5153 14.6147 50.948 15.502 50.948 16.514C50.948 17.526 50.6033 18.538 49.914 19.55C49.2247 20.5473 48.198 21.3027 46.834 21.816L47.12 22.674C47.648 24.3167 48.4107 25.9447 49.408 27.558C50.4053 29.1567 51.2193 30.2493 51.85 30.836C51.3073 30.9827 50.7647 31.056 50.222 31.056C49.694 31.056 49.1587 30.88 48.616 30.528C48.0733 30.1907 47.6187 29.8167 47.252 29.406C46.9 28.9953 46.504 28.3427 46.064 27.448C45.624 26.5533 45.3087 25.8567 45.118 25.358C44.9273 24.8593 44.7147 24.3093 44.48 23.708C44.26 23.1067 44.1427 22.784 44.128 22.74C44.1133 22.696 44.0913 22.6447 44.062 22.586C44.0327 22.5127 44.0107 22.4467 43.996 22.388C43.6733 22.388 43.358 22.388 43.05 22.388L42.984 21.376C44.8467 21.3027 46.2327 20.6353 47.142 19.374C47.6407 18.67 47.89 17.9513 47.89 17.218C47.89 16.9393 47.8607 16.668 47.802 16.404C47.5527 15.4507 46.9587 14.8567 46.02 14.622C45.756 14.5487 45.3893 14.512 44.92 14.512C44.4507 14.512 43.8273 14.666 43.05 14.974C43.05 15.5313 42.8373 17.3573 42.412 20.452C42.0013 23.532 41.796 26.106 41.796 28.174C41.796 29.098 41.84 29.8167 41.928 30.33C41.4587 30.3593 41.1507 30.374 41.004 30.374ZM59.7877 18.978C58.8344 18.978 57.9837 19.6233 57.2357 20.914C56.4877 22.19 56.1137 23.466 56.1137 24.742C56.1137 27.4113 56.803 28.746 58.1817 28.746C59.1644 28.746 59.9637 28.108 60.5797 26.832C61.1957 25.5413 61.5037 24.0967 61.5037 22.498C61.5037 20.1513 60.9317 18.978 59.7877 18.978ZM57.9177 16.998C58.079 16.998 58.2257 17.0493 58.3577 17.152C58.5044 17.24 58.5777 17.3353 58.5777 17.438C57.0964 18.4647 56.209 19.8947 55.9157 21.728C56.2237 20.9067 56.5977 20.1953 57.0377 19.594C57.4924 18.9927 57.9617 18.538 58.4457 18.23C59.3697 17.658 60.2717 17.372 61.1517 17.372C62.0317 17.372 62.7797 17.8047 63.3957 18.67C64.0117 19.5353 64.3197 20.694 64.3197 22.146C64.3197 23.774 63.9897 25.27 63.3297 26.634C62.5964 28.174 61.555 29.2373 60.2057 29.824C59.443 30.1613 58.607 30.33 57.6977 30.33C56.4217 30.33 55.307 29.8387 54.3537 28.856C53.415 27.8587 52.9457 26.436 52.9457 24.588C52.9457 22.7253 53.4004 21.09 54.3097 19.682C55.219 18.2593 56.4217 17.3647 57.9177 16.998ZM73.3658 18.978C72.4125 18.978 71.5618 19.6233 70.8138 20.914C70.0658 22.19 69.6918 23.466 69.6918 24.742C69.6918 27.4113 70.3812 28.746 71.7598 28.746C72.7425 28.746 73.5418 28.108 74.1578 26.832C74.7738 25.5413 75.0818 24.0967 75.0818 22.498C75.0818 20.1513 74.5098 18.978 73.3658 18.978ZM71.4958 16.998C71.6572 16.998 71.8038 17.0493 71.9358 17.152C72.0825 17.24 72.1558 17.3353 72.1558 17.438C70.6745 18.4647 69.7872 19.8947 69.4938 21.728C69.8018 20.9067 70.1758 20.1953 70.6158 19.594C71.0705 18.9927 71.5398 18.538 72.0238 18.23C72.9478 17.658 73.8498 17.372 74.7298 17.372C75.6098 17.372 76.3578 17.8047 76.9738 18.67C77.5898 19.5353 77.8978 20.694 77.8978 22.146C77.8978 23.774 77.5678 25.27 76.9078 26.634C76.1745 28.174 75.1332 29.2373 73.7838 29.824C73.0212 30.1613 72.1852 30.33 71.2758 30.33C69.9998 30.33 68.8852 29.8387 67.9318 28.856C66.9932 27.8587 66.5238 26.436 66.5238 24.588C66.5238 22.7253 66.9785 21.09 67.8878 19.682C68.7972 18.2593 69.9998 17.3647 71.4958 16.998ZM90.046 27.668C90.046 28.4013 90.09 29.1787 90.178 30C89.7086 30.0293 89.4006 30.044 89.254 30.044C88.4326 30.044 87.8386 29.9047 87.472 29.626C87.1053 29.3327 86.922 28.9073 86.922 28.35C86.922 27.7927 87.076 26.6487 87.384 24.918C87.7066 23.1727 87.868 21.8527 87.868 20.958C87.868 20.0487 87.5746 19.594 86.988 19.594C86.6653 19.594 86.3133 19.792 85.932 20.188C85.5506 20.5693 85.1913 21.0973 84.854 21.772C84.5166 22.432 84.2306 23.2827 83.996 24.324C83.776 25.3653 83.666 26.37 83.666 27.338C83.666 28.2913 83.71 29.1787 83.798 30C83.3286 30.0293 83.0206 30.044 82.874 30.044C82.0526 30.044 81.4586 29.9047 81.092 29.626C80.7253 29.3327 80.542 28.8487 80.542 28.174C80.542 28.0127 80.6886 26.92 80.982 24.896C81.29 22.872 81.444 21.2733 81.444 20.1C81.444 18.912 81.3193 17.8267 81.07 16.844C82.1553 17.1813 82.9106 17.6653 83.336 18.296C83.7613 18.9267 83.974 19.704 83.974 20.628C83.974 21.0973 83.9226 21.6913 83.82 22.41C84.3186 20.9433 85.008 19.726 85.888 18.758C86.7826 17.79 87.6406 17.306 88.462 17.306C89.298 17.306 89.8993 17.614 90.266 18.23C90.6473 18.846 90.838 19.7333 90.838 20.892C91.3953 19.8213 92.0333 18.956 92.752 18.296C93.4706 17.636 94.1306 17.306 94.732 17.306C95.6266 17.306 96.2573 17.5773 96.624 18.12C97.0053 18.648 97.196 19.374 97.196 20.298C97.196 21.2073 97.0493 22.4907 96.756 24.148C96.4773 25.8053 96.338 27.0153 96.338 27.778C96.338 28.526 96.4333 29.076 96.624 29.428C96.8146 29.7653 97.1373 30.0587 97.592 30.308C97.4013 30.3227 97.13 30.33 96.778 30.33C95.546 30.33 94.666 30.1393 94.138 29.758C93.6246 29.3767 93.368 28.7093 93.368 27.756C93.368 27.2133 93.5146 26.1573 93.808 24.588C94.1013 23.004 94.248 21.8233 94.248 21.046C94.248 20.078 93.9546 19.594 93.368 19.594C92.928 19.594 92.4513 19.9167 91.938 20.562C91.4393 21.1927 90.9993 22.1533 90.618 23.444C90.2366 24.72 90.046 26.128 90.046 27.668ZM109.308 25.864C108.78 26.0693 108.369 26.172 108.076 26.172C107.196 26.172 106.704 26.0473 106.602 25.798C105.135 22.0287 104.167 19.6013 103.698 18.516C103.654 18.912 103.536 19.8287 103.346 21.266C102.95 24.082 102.752 26.4213 102.752 28.284C102.752 28.7387 102.781 29.3473 102.84 30.11C101.813 30.11 101.116 29.9927 100.75 29.758C100.398 29.5087 100.222 29.164 100.222 28.724C100.222 28.5773 100.464 26.5827 100.948 22.74C101.446 18.8973 101.696 16.2207 101.696 14.71V14.6C101.27 13.9107 100.823 13.346 100.354 12.906C100.896 12.5247 101.549 12.334 102.312 12.334C103.28 12.334 104.028 12.7887 104.556 13.698C105.084 14.5927 106.118 17.064 107.658 21.112L108.67 23.708C108.758 23.5613 108.89 23.3633 109.066 23.114C112.644 17.8193 114.485 14.226 114.588 12.334C114.588 12.3487 114.764 12.3707 115.116 12.4C115.468 12.4147 115.842 12.488 116.238 12.62C116.648 12.7373 116.942 12.928 117.118 13.192C117.308 13.4413 117.426 13.6907 117.47 13.94C117.514 14.1747 117.536 14.5853 117.536 15.172C117.536 15.744 117.294 17.6873 116.81 21.002C116.326 24.3167 116.084 26.6413 116.084 27.976C116.084 29.296 116.186 30.198 116.392 30.682C115.145 30.3593 114.294 29.934 113.84 29.406C113.385 28.8633 113.158 28.1153 113.158 27.162C113.158 26.6047 113.304 25.2333 113.598 23.048C113.906 20.8627 114.118 19.1173 114.236 17.812C113.649 18.824 112.813 20.21 111.728 21.97C110.657 23.73 110.012 24.7787 109.792 25.116C109.572 25.4387 109.41 25.688 109.308 25.864ZM125.472 24.588C124.768 24.588 124.079 24.5073 123.404 24.346C123.39 24.4927 123.382 24.72 123.382 25.028C123.382 26.2453 123.61 27.162 124.064 27.778C124.519 28.394 125.062 28.702 125.692 28.702C126.323 28.702 126.924 28.5113 127.496 28.13C128.068 27.7487 128.567 27.2207 128.992 26.546C129.52 26.6633 129.784 26.9347 129.784 27.36C128.494 29.34 126.829 30.33 124.79 30.33C123.558 30.33 122.48 29.8607 121.556 28.922C120.632 27.9687 120.17 26.6487 120.17 24.962C120.17 23.7007 120.412 22.5053 120.896 21.376C121.38 20.232 122.15 19.2713 123.206 18.494C124.262 17.702 125.428 17.306 126.704 17.306C127.995 17.306 128.941 17.5993 129.542 18.186C130.144 18.7727 130.444 19.5427 130.444 20.496C130.444 21.8747 129.96 22.9013 128.992 23.576C128.039 24.2507 126.866 24.588 125.472 24.588ZM126.396 18.67C125.648 18.67 125.018 19.132 124.504 20.056C123.991 20.98 123.654 22.102 123.492 23.422H123.822C125.098 23.422 126.037 23.092 126.638 22.432C127.254 21.772 127.562 20.98 127.562 20.056C127.562 19.6747 127.46 19.352 127.254 19.088C127.064 18.8093 126.778 18.67 126.396 18.67Z" fill="#599CFF"/>
</g>
<defs>
<filter id="filter0_d" x="-5" y="0" width="52" height="52" filterUnits="userSpaceOnUse" color-interpolation-filters="sRGB">
<feFlood flood-opacity="0" result="BackgroundImageFix"/>
<feColorMatrix in="SourceAlpha" type="matrix" values="0 0 0 0 0 0 0 0 0 0 0 0 0 0 0 0 0 0 127 0"/>
<feOffset dy="4"/>
<feGaussianBlur stdDeviation="5"/>
<feColorMatrix type="matrix" values="0 0 0 0 0 0 0 0 0 0 0 0 0 0 0 0 0 0 0.5 0"/>
<feBlend mode="normal" in2="BackgroundImageFix" result="effect1_dropShadow"/>
<feBlend mode="normal" in="SourceGraphic" in2="effect1_dropShadow" result="shape"/>
</filter>
<filter id="filter1_d" x="12.4286" y="12.0952" width="17.1429" height="17.1429" filterUnits="userSpaceOnUse" color-interpolation-filters="sRGB">
<feFlood flood-opacity="0" result="BackgroundImageFix"/>
<feColorMatrix in="SourceAlpha" type="matrix" values="0 0 0 0 0 0 0 0 0 0 0 0 0 0 0 0 0 0 127 0"/>
<feOffset dy="4"/>
<feGaussianBlur stdDeviation="2"/>
<feColorMatrix type="matrix" values="0 0 0 0 0 0 0 0 0 0 0 0 0 0 0 0 0 0 0.72 0"/>
<feBlend mode="normal" in2="BackgroundImageFix" result="effect1_dropShadow"/>
<feBlend mode="normal" in="SourceGraphic" in2="effect1_dropShadow" result="shape"/>
</filter>
<filter id="filter2_d" x="34.65" y="11.828" width="99.7943" height="27.228" filterUnits="userSpaceOnUse" color-interpolation-filters="sRGB">
<feFlood flood-opacity="0" result="BackgroundImageFix"/>
<feColorMatrix in="SourceAlpha" type="matrix" values="0 0 0 0 0 0 0 0 0 0 0 0 0 0 0 0 0 0 127 0"/>
<feOffset dy="4"/>
<feGaussianBlur stdDeviation="2"/>
<feColorMatrix type="matrix" values="0 0 0 0 0 0 0 0 0 0 0 0 0 0 0 0 0 0 0.4 0"/>
<feBlend mode="normal" in2="BackgroundImageFix" result="effect1_dropShadow"/>
<feBlend mode="normal" in="SourceGraphic" in2="effect1_dropShadow" result="shape"/>
</filter>
<clipPath id="clip0">
<rect width="9.14286" height="9.14286" fill="white" transform="translate(16.4286 12.0952)"/>
</clipPath>
</defs>
</svg>
